<svg width="50" height="50" viewBox="0 0 50 50" fill="none" xmlns="http://www.w3.org/2000/svg">
<path d="M25 28.5791C25.663 28.5791 26.2989 28.3282 26.7677 27.8815C27.2366 27.4349 27.5 26.8291 27.5 26.1975V2.38159C27.5 1.74995 27.2366 1.14419 26.7677 0.697552C26.2989 0.250917 25.663 0 25 0C24.3369 0 23.701 0.250917 23.2322 0.697552C22.7634 1.14419 22.5 1.74995 22.5 2.38159V26.1975C22.5 26.8291 22.7634 27.4349 23.2322 27.8815C23.701 28.3282 24.3369 28.5791 25 28.5791Z" fill="#6FCF97"/>
<path d="M36.475 5.02523C35.8849 4.73468 35.1978 4.67934 34.5649 4.87139C33.9319 5.06345 33.405 5.48716 33.1 6.04931C32.795 6.61147 32.7369 7.26603 32.9385 7.86898C33.1401 8.47194 33.5849 8.97391 34.175 9.26446C38.1586 11.2237 41.3357 14.4012 43.1963 18.2869C45.0569 22.1726 45.4931 26.5412 44.4348 30.6914C43.3766 34.8416 40.8853 38.5327 37.3609 41.1723C33.8364 43.8118 29.4832 45.2468 25 45.2468C20.5168 45.2468 16.1636 43.8118 12.6391 41.1723C9.1147 38.5327 6.62341 34.8416 5.56517 30.6914C4.50693 26.5412 4.94311 22.1726 6.8037 18.2869C8.66429 14.4012 11.8414 11.2237 15.825 9.26446C16.1172 9.1206 16.3768 8.92331 16.5889 8.68387C16.8011 8.44444 16.9617 8.16754 17.0615 7.86898C17.1613 7.57043 17.1984 7.25607 17.1707 6.94385C17.143 6.63163 17.051 6.32767 16.9 6.04931C16.749 5.77096 16.5419 5.52367 16.2906 5.32156C16.0392 5.11946 15.7485 4.96649 15.4351 4.87139C15.1217 4.7763 14.7918 4.74094 14.464 4.76733C14.1363 4.79373 13.8172 4.88136 13.525 5.02523C8.54674 7.47538 4.57685 11.4477 2.25244 16.3048C-0.0719693 21.1619 -0.616127 26.622 0.707296 31.809C2.03072 36.996 5.14498 41.6091 9.55031 44.9079C13.9556 48.2068 19.3966 50.0001 25 50.0001C30.6034 50.0001 36.0444 48.2068 40.4497 44.9079C44.855 41.6091 47.9693 36.996 49.2927 31.809C50.6161 26.622 50.072 21.1619 47.7476 16.3048C45.4231 11.4477 41.4533 7.47538 36.475 5.02523Z" fill="#6FCF97"/>
</svg>
