<svg width="32" height="32" viewBox="0 0 32 32" fill="none" xmlns="http://www.w3.org/2000/svg">
<path d="M23 24C19.4 24 17.97 19.824 16.587 15.786C15.277 11.958 13.92 8 11 8C10.3182 8.04009 9.66374 8.28224 9.12004 8.69558C8.57633 9.10892 8.16798 9.67476 7.94699 10.321L6.04999 9.684C6.10099 9.534 7.32099 6 11 6C15.35 6 17.012 10.855 18.48 15.138C19.689 18.667 20.83 22 23 22C23.6818 21.9599 24.3362 21.7178 24.8799 21.3044C25.4236 20.8911 25.832 20.3252 26.053 19.679L27.949 20.316C27.899 20.466 26.679 24 23 24Z" fill="black"/>
<path d="M4 28V17H6V15H4V2H2V28C2 28.5304 2.21071 29.0391 2.58579 29.4142C2.96086 29.7893 3.46957 30 4 30H30V28H4Z" fill="black"/>
<path d="M8 15H10V17H8V15Z" fill="black"/>
<path d="M12 15H14V17H12V15Z" fill="black"/>
<path d="M20 15H22V17H20V15Z" fill="black"/>
<path d="M24 15H26V17H24V15Z" fill="black"/>
<path d="M28 15H30V17H28V15Z" fill="black"/>
</svg>
