<svg width="32" height="32" viewBox="0 0 32 32" fill="none" xmlns="http://www.w3.org/2000/svg">
<path d="M25.3333 4.00002C23.128 4.00002 21.3333 5.79469 21.3333 8.00002C21.3333 8.66935 21.5147 9.29069 21.8053 9.84669L20.3173 11.5827C19.4371 10.9848 18.3974 10.6656 17.3333 10.6667C16.348 10.6667 15.4333 10.9547 14.64 11.4214L12.7547 9.53602C13.1292 8.86193 13.3282 8.10448 13.3333 7.33335C13.3333 4.76002 11.24 2.66669 8.66667 2.66669C6.09333 2.66669 4 4.76002 4 7.33335C4 9.90669 6.09333 12 8.66667 12C9.468 12 10.2107 11.7787 10.8693 11.4214L12.7547 13.3067C12.2663 14.1206 12.0056 15.0508 12 16C12 17.3294 12.5067 18.532 13.3133 19.468L11.0573 21.724L11.0907 21.7574C10.5455 21.4821 9.94401 21.3369 9.33333 21.3334C7.128 21.3334 5.33333 23.128 5.33333 25.3334C5.33333 27.5387 7.128 29.3334 9.33333 29.3334C11.5387 29.3334 13.3333 27.5387 13.3333 25.3334C13.3333 24.6987 13.172 24.108 12.9093 23.576L12.9427 23.6094L15.548 21.004C16.1093 21.204 16.704 21.3334 17.3333 21.3334C20.2747 21.3334 22.6667 18.9414 22.6667 16C22.6609 15.1718 22.4604 14.3565 22.0813 13.62L23.752 11.6707C24.2373 11.8814 24.7707 12 25.3333 12C27.5387 12 29.3333 10.2054 29.3333 8.00002C29.3333 5.79469 27.5387 4.00002 25.3333 4.00002ZM9.33333 26.6667C8.97971 26.6667 8.64057 26.5262 8.39052 26.2762C8.14048 26.0261 8 25.687 8 25.3334C8 24.9797 8.14048 24.6406 8.39052 24.3905C8.64057 24.1405 8.97971 24 9.33333 24C9.68696 24 10.0261 24.1405 10.2761 24.3905C10.5262 24.6406 10.6667 24.9797 10.6667 25.3334C10.6667 25.687 10.5262 26.0261 10.2761 26.2762C10.0261 26.5262 9.68696 26.6667 9.33333 26.6667ZM6.66667 7.33335C6.66667 6.23069 7.564 5.33335 8.66667 5.33335C9.76933 5.33335 10.6667 6.23069 10.6667 7.33335C10.6667 8.43602 9.76933 9.33335 8.66667 9.33335C7.564 9.33335 6.66667 8.43602 6.66667 7.33335ZM17.3333 18.6667C15.8627 18.6667 14.6667 17.4707 14.6667 16C14.6667 14.5294 15.8627 13.3334 17.3333 13.3334C18.804 13.3334 20 14.5294 20 16C20 17.4707 18.804 18.6667 17.3333 18.6667ZM25.3333 9.33335C24.9797 9.33335 24.6406 9.19288 24.3905 8.94283C24.1405 8.69278 24 8.35364 24 8.00002C24 7.6464 24.1405 7.30726 24.3905 7.05721C24.6406 6.80716 24.9797 6.66669 25.3333 6.66669C25.687 6.66669 26.0261 6.80716 26.2761 7.05721C26.5262 7.30726 26.6667 7.6464 26.6667 8.00002C26.6667 8.35364 26.5262 8.69278 26.2761 8.94283C26.0261 9.19288 25.687 9.33335 25.3333 9.33335Z" fill="black"/>
</svg>
