<svg width="32" height="32" viewBox="0 0 32 32" fill="none" xmlns="http://www.w3.org/2000/svg">
<path d="M16 2.66669C8.64802 2.66669 2.66669 8.64802 2.66669 16C2.66669 23.352 8.64802 29.3334 16 29.3334C23.352 29.3334 29.3334 23.352 29.3334 16C29.3334 8.64802 23.352 2.66669 16 2.66669ZM16 26.6667C10.1187 26.6667 5.33335 21.8814 5.33335 16C5.33335 10.1187 10.1187 5.33335 16 5.33335C21.8814 5.33335 26.6667 10.1187 26.6667 16C26.6667 21.8814 21.8814 26.6667 16 26.6667Z" fill="black"/>
<path d="M16 6.88803V16H25.112C25.115 14.8026 24.8813 13.6164 24.4245 12.5095C23.9676 11.4026 23.2965 10.3969 22.4498 9.5502C21.6031 8.70348 20.5974 8.03241 19.4905 7.57555C18.3837 7.11869 17.1974 6.88504 16 6.88803Z" fill="black"/>
</svg>
