<svg width="41" height="40" viewBox="0 0 41 40" fill="none" xmlns="http://www.w3.org/2000/svg">
<g clip-path="url(#clip0)">
<path d="M20.5 38.3333C23.8152 38.3333 26.9946 37.0164 29.3388 34.6722C31.683 32.328 33 29.1485 33 25.8333C33 24.39 32.6166 23.005 32.1666 21.7167C29.3883 24.4617 27.2783 25.8333 25.8333 25.8333C32.4916 14.1667 28.8333 9.16667 18.8333 2.5C19.6666 10.8333 14.1733 14.6233 11.9366 16.7283C10.1122 18.4445 8.84537 20.6691 8.30044 23.1139C7.75552 25.5586 7.95762 28.1107 8.88055 30.4392C9.80348 32.7677 11.4047 34.7653 13.4765 36.1728C15.5483 37.5804 17.9952 38.3331 20.5 38.3333ZM21.6833 8.725C27.085 13.3083 27.1116 16.87 22.9383 24.1817C21.67 26.4033 23.275 29.1667 25.8333 29.1667C26.98 29.1667 28.14 28.8333 29.365 28.175C29.0019 29.5466 28.3253 30.8153 27.3886 31.881C26.4518 32.9467 25.2805 33.7804 23.9668 34.3164C22.653 34.8525 21.2328 35.0763 19.8179 34.9701C18.403 34.864 17.032 34.4309 15.813 33.7048C14.5939 32.9788 13.5601 31.9797 12.7928 30.7862C12.0255 29.5926 11.5458 28.2373 11.3913 26.8268C11.2369 25.4164 11.412 23.9893 11.9029 22.658C12.3937 21.3268 13.1869 20.1276 14.22 19.155C14.43 18.9583 15.495 18.0133 15.5416 17.9717C16.2483 17.3383 16.83 16.7767 17.405 16.1617C19.455 13.965 20.9283 11.5283 21.6816 8.725H21.6833Z" fill="#4DA7D6"/>
</g>
<defs>
<clipPath id="clip0">
<path d="M0.5 20C0.5 8.95431 9.45431 0 20.5 0C31.5457 0 40.5 8.95431 40.5 20C40.5 31.0457 31.5457 40 20.5 40C9.45431 40 0.5 31.0457 0.5 20Z" fill="white"/>
</clipPath>
</defs>
</svg>
