<svg width="41" height="40" viewBox="0 0 41 40" fill="none" xmlns="http://www.w3.org/2000/svg">
<g clip-path="url(#clip0)">
<g clip-path="url(#clip1)">
<g clip-path="url(#clip2)">
<path d="M20.5 3.33337C20.942 3.33337 21.3659 3.50897 21.6785 3.82153C21.9911 4.13409 22.1666 4.55801 22.1666 5.00004V6.66671C22.1666 7.10874 21.9911 7.53266 21.6785 7.84522C21.3659 8.15778 20.942 8.33337 20.5 8.33337C20.058 8.33337 19.634 8.15778 19.3215 7.84522C19.0089 7.53266 18.8333 7.10874 18.8333 6.66671V5.00004C18.8333 4.55801 19.0089 4.13409 19.3215 3.82153C19.634 3.50897 20.058 3.33337 20.5 3.33337ZM8.48831 7.98837C8.80086 7.67592 9.22471 7.5004 9.66665 7.5004C10.1086 7.5004 10.5324 7.67592 10.845 7.98837L12.5116 9.65504C12.8152 9.96938 12.9832 10.3904 12.9794 10.8274C12.9756 11.2644 12.8004 11.6824 12.4913 11.9914C12.1823 12.3004 11.7643 12.4757 11.3273 12.4795C10.8903 12.4833 10.4693 12.3153 10.155 12.0117L8.48831 10.345C8.17586 10.0325 8.00034 9.60865 8.00034 9.16671C8.00034 8.72477 8.17586 8.30092 8.48831 7.98837ZM32.5116 7.98837C32.8241 8.30092 32.9996 8.72477 32.9996 9.16671C32.9996 9.60865 32.8241 10.0325 32.5116 10.345L30.845 12.0117C30.6912 12.1709 30.5073 12.2979 30.304 12.3852C30.1006 12.4726 29.8819 12.5185 29.6606 12.5205C29.4394 12.5224 29.2199 12.4802 29.0151 12.3964C28.8102 12.3126 28.6241 12.1889 28.4677 12.0324C28.3112 11.8759 28.1874 11.6898 28.1036 11.485C28.0198 11.2801 27.9776 11.0607 27.9796 10.8394C27.9815 10.6181 28.0275 10.3994 28.1148 10.196C28.2022 9.99269 28.3291 9.80879 28.4883 9.65504L30.155 7.98837C30.4675 7.67592 30.8914 7.5004 31.3333 7.5004C31.7753 7.5004 32.1991 7.67592 32.5116 7.98837ZM20.5 13.3334C18.7319 13.3334 17.0362 14.0358 15.7859 15.286C14.5357 16.5362 13.8333 18.2319 13.8333 20C13.8333 21.7682 14.5357 23.4638 15.7859 24.7141C17.0362 25.9643 18.7319 26.6667 20.5 26.6667C22.2681 26.6667 23.9638 25.9643 25.214 24.7141C26.4643 23.4638 27.1666 21.7682 27.1666 20C27.1666 18.2319 26.4643 16.5362 25.214 15.286C23.9638 14.0358 22.2681 13.3334 20.5 13.3334ZM10.5 20C10.5002 18.2447 10.9625 16.5204 11.8403 15.0004C12.7182 13.4804 13.9807 12.2182 15.5009 11.3407C17.0211 10.4632 18.7456 10.0013 20.5009 10.0015C22.2562 10.0016 23.9805 10.4638 25.5006 11.3416C27.0207 12.2193 28.2829 13.4817 29.1605 15.0019C30.0381 16.5221 30.5 18.2465 30.5 20.0018C30.4999 21.7571 30.0378 23.4815 29.1601 25.0016C28.2825 26.5217 27.0201 27.7841 25.5 28.6617V31.6667C25.5 32.9928 24.9732 34.2646 24.0355 35.2022C23.0978 36.1399 21.8261 36.6667 20.5 36.6667C19.1739 36.6667 17.9021 36.1399 16.9644 35.2022C16.0268 34.2646 15.5 32.9928 15.5 31.6667V28.6617C13.9794 27.7842 12.7167 26.5216 11.8389 25.0011C10.9612 23.4806 10.4994 21.7557 10.5 20ZM18.8333 29.8617V31.6667C18.8333 32.1087 19.0089 32.5327 19.3215 32.8452C19.634 33.1578 20.058 33.3334 20.5 33.3334C20.942 33.3334 21.3659 33.1578 21.6785 32.8452C21.9911 32.5327 22.1666 32.1087 22.1666 31.6667V29.8617C21.0633 30.0472 19.9367 30.0472 18.8333 29.8617ZM3.83331 20C3.83331 19.558 4.00891 19.1341 4.32147 18.8215C4.63403 18.509 5.05795 18.3334 5.49998 18.3334H7.16665C7.60867 18.3334 8.0326 18.509 8.34516 18.8215C8.65772 19.1341 8.83331 19.558 8.83331 20C8.83331 20.4421 8.65772 20.866 8.34516 21.1786C8.0326 21.4911 7.60867 21.6667 7.16665 21.6667H5.49998C5.05795 21.6667 4.63403 21.4911 4.32147 21.1786C4.00891 20.866 3.83331 20.4421 3.83331 20ZM32.1666 20C32.1666 19.558 32.3422 19.1341 32.6548 18.8215C32.9674 18.509 33.3913 18.3334 33.8333 18.3334H35.5C35.942 18.3334 36.3659 18.509 36.6785 18.8215C36.9911 19.1341 37.1666 19.558 37.1666 20C37.1666 20.4421 36.9911 20.866 36.6785 21.1786C36.3659 21.4911 35.942 21.6667 35.5 21.6667H33.8333C33.3913 21.6667 32.9674 21.4911 32.6548 21.1786C32.3422 20.866 32.1666 20.4421 32.1666 20Z" fill="#4DA7D6"/>
</g>
</g>
</g>
<defs>
<clipPath id="clip0">
<rect width="40" height="40" fill="white" transform="translate(0.5)"/>
</clipPath>
<clipPath id="clip1">
<rect width="40" height="40" fill="white" transform="translate(0.5)"/>
</clipPath>
<clipPath id="clip2">
<rect width="40" height="40" fill="white" transform="translate(0.5)"/>
</clipPath>
</defs>
</svg>
