<svg width="24" height="24" viewBox="0 0 24 24" fill="none" xmlns="http://www.w3.org/2000/svg">
<path d="M12 2C12.2652 2 12.5196 2.10536 12.7071 2.29289C12.8946 2.48043 13 2.73478 13 3V4C13 4.26522 12.8946 4.51957 12.7071 4.70711C12.5196 4.89464 12.2652 5 12 5C11.7348 5 11.4804 4.89464 11.2929 4.70711C11.1054 4.51957 11 4.26522 11 4V3C11 2.73478 11.1054 2.48043 11.2929 2.29289C11.4804 2.10536 11.7348 2 12 2ZM4.793 4.793C4.98053 4.60553 5.23484 4.50021 5.5 4.50021C5.76516 4.50021 6.01947 4.60553 6.207 4.793L7.207 5.793C7.38916 5.9816 7.48995 6.2342 7.48767 6.4964C7.4854 6.7586 7.38023 7.00941 7.19482 7.19482C7.00941 7.38023 6.7586 7.4854 6.4964 7.48767C6.2342 7.48995 5.9816 7.38916 5.793 7.207L4.793 6.207C4.60553 6.01947 4.50021 5.76516 4.50021 5.5C4.50021 5.23484 4.60553 4.98053 4.793 4.793ZM19.207 4.793C19.3945 4.98053 19.4998 5.23484 19.4998 5.5C19.4998 5.76516 19.3945 6.01947 19.207 6.207L18.207 7.207C18.1148 7.30251 18.0044 7.37869 17.8824 7.4311C17.7604 7.48351 17.6292 7.5111 17.4964 7.51225C17.3636 7.5134 17.2319 7.4881 17.109 7.43782C16.9862 7.38754 16.8745 7.31329 16.7806 7.2194C16.6867 7.1255 16.6125 7.01385 16.5622 6.89095C16.5119 6.76806 16.4866 6.63638 16.4877 6.5036C16.4889 6.37082 16.5165 6.2396 16.5689 6.1176C16.6213 5.99559 16.6975 5.88525 16.793 5.793L17.793 4.793C17.9805 4.60553 18.2348 4.50021 18.5 4.50021C18.7652 4.50021 19.0195 4.60553 19.207 4.793ZM12 8C10.9391 8 9.92172 8.42143 9.17157 9.17157C8.42143 9.92172 8 10.9391 8 12C8 13.0609 8.42143 14.0783 9.17157 14.8284C9.92172 15.5786 10.9391 16 12 16C13.0609 16 14.0783 15.5786 14.8284 14.8284C15.5786 14.0783 16 13.0609 16 12C16 10.9391 15.5786 9.92172 14.8284 9.17157C14.0783 8.42143 13.0609 8 12 8ZM6 12C6.00015 10.9468 6.27751 9.91222 6.80422 9.00021C7.33092 8.08819 8.08841 7.33087 9.00055 6.80438C9.91269 6.27788 10.9473 6.00075 12.0005 6.00085C13.0537 6.00094 14.0883 6.27825 15.0004 6.80491C15.9124 7.33156 16.6698 8.08901 17.1963 9.00112C17.7229 9.91323 18 10.9479 18 12.0011C18 13.0542 17.7227 14.0889 17.1961 15.0009C16.6695 15.913 15.9121 16.6704 15 17.197V19C15 19.7956 14.6839 20.5587 14.1213 21.1213C13.5587 21.6839 12.7956 22 12 22C11.2044 22 10.4413 21.6839 9.87868 21.1213C9.31607 20.5587 9 19.7956 9 19V17.197C8.08762 16.6705 7.33001 15.9129 6.80337 15.0006C6.27673 14.0883 5.99965 13.0534 6 12ZM11 17.917V19C11 19.2652 11.1054 19.5196 11.2929 19.7071C11.4804 19.8946 11.7348 20 12 20C12.2652 20 12.5196 19.8946 12.7071 19.7071C12.8946 19.5196 13 19.2652 13 19V17.917C12.338 18.0283 11.662 18.0283 11 17.917ZM2 12C2 11.7348 2.10536 11.4804 2.29289 11.2929C2.48043 11.1054 2.73478 11 3 11H4C4.26522 11 4.51957 11.1054 4.70711 11.2929C4.89464 11.4804 5 11.7348 5 12C5 12.2652 4.89464 12.5196 4.70711 12.7071C4.51957 12.8946 4.26522 13 4 13H3C2.73478 13 2.48043 12.8946 2.29289 12.7071C2.10536 12.5196 2 12.2652 2 12ZM19 12C19 11.7348 19.1054 11.4804 19.2929 11.2929C19.4804 11.1054 19.7348 11 20 11H21C21.2652 11 21.5196 11.1054 21.7071 11.2929C21.8946 11.4804 22 11.7348 22 12C22 12.2652 21.8946 12.5196 21.7071 12.7071C21.5196 12.8946 21.2652 13 21 13H20C19.7348 13 19.4804 12.8946 19.2929 12.7071C19.1054 12.5196 19 12.2652 19 12Z" fill="black"/>
</svg>
