<svg width="41" height="40" viewBox="0 0 41 40" fill="none" xmlns="http://www.w3.org/2000/svg">
<path d="M36.6889 17.4666L32.9667 16.3555C32.7093 15.457 32.3554 14.589 31.9111 13.7666L33.7334 10.3555C33.8017 10.2268 33.8268 10.0794 33.8047 9.93528C33.7827 9.79117 33.7148 9.65799 33.6111 9.55552L30.9556 6.88886C30.8531 6.78515 30.7199 6.71726 30.5758 6.69524C30.4317 6.67322 30.2843 6.69826 30.1556 6.76663L26.7667 8.57774C25.9363 8.11181 25.0568 7.73917 24.1445 7.46663L23.0334 3.78886C22.9864 3.65332 22.8976 3.53619 22.7798 3.45432C22.662 3.37246 22.5212 3.33009 22.3778 3.3333H18.6222C18.478 3.33397 18.3376 3.38067 18.2217 3.4666C18.1058 3.55254 18.0204 3.67321 17.9778 3.81108L16.8667 7.47774C15.9467 7.74883 15.0598 8.1215 14.2222 8.58886L10.8889 6.78886C10.7601 6.72048 10.6128 6.69544 10.4687 6.71746C10.3245 6.73948 10.1914 6.80738 10.0889 6.91108L7.38891 9.54441C7.28521 9.64688 7.21731 9.78005 7.19529 9.92417C7.17327 10.0683 7.19831 10.2157 7.26669 10.3444L9.06669 13.6777C8.60008 14.5117 8.22743 15.3949 7.95557 16.3111L4.2778 17.4222C4.13993 17.4648 4.01925 17.5502 3.93332 17.6661C3.84739 17.782 3.80069 17.9223 3.80002 18.0666V21.8222C3.80069 21.9665 3.84739 22.1068 3.93332 22.2227C4.01925 22.3386 4.13993 22.4241 4.2778 22.4666L7.9778 23.5777C8.25262 24.4787 8.62521 25.3468 9.08891 26.1666L7.26669 29.6555C7.19831 29.7843 7.17327 29.9317 7.19529 30.0758C7.21731 30.2199 7.28521 30.3531 7.38891 30.4555L10.0445 33.1111C10.1469 33.2148 10.2801 33.2827 10.4242 33.3047C10.5683 33.3267 10.7157 33.3017 10.8445 33.2333L14.2778 31.4C15.09 31.8382 15.9467 32.1884 16.8334 32.4444L17.9445 36.1889C17.987 36.3267 18.0725 36.4474 18.1884 36.5333C18.3043 36.6193 18.4446 36.666 18.5889 36.6666H22.3445C22.4888 36.666 22.6291 36.6193 22.745 36.5333C22.8609 36.4474 22.9463 36.3267 22.9889 36.1889L24.1 32.4333C24.9791 32.1759 25.8283 31.8258 26.6334 31.3889L30.0889 33.2333C30.2177 33.3017 30.365 33.3267 30.5092 33.3047C30.6533 33.2827 30.7864 33.2148 30.8889 33.1111L33.5445 30.4555C33.6482 30.3531 33.7161 30.2199 33.7381 30.0758C33.7601 29.9317 33.7351 29.7843 33.6667 29.6555L31.8222 26.2111C32.2638 25.403 32.6176 24.55 32.8778 23.6666L36.6222 22.5555C36.7601 22.5129 36.8808 22.4275 36.9667 22.3116C37.0526 22.1957 37.0993 22.0554 37.1 21.9111V18.1222C37.1066 17.984 37.0707 17.8472 36.9972 17.73C36.9237 17.6128 36.8161 17.5209 36.6889 17.4666ZM20.5 26.1111C19.2914 26.1111 18.1098 25.7527 17.1049 25.0812C16.0999 24.4097 15.3166 23.4552 14.8541 22.3386C14.3916 21.2219 14.2705 19.9932 14.5063 18.8077C14.7421 17.6223 15.3242 16.5334 16.1788 15.6788C17.0335 14.8241 18.1224 14.2421 19.3078 14.0063C20.4932 13.7705 21.722 13.8915 22.8386 14.354C23.9553 14.8166 24.9097 15.5998 25.5812 16.6048C26.2527 17.6098 26.6111 18.7913 26.6111 20C26.6111 21.6207 25.9673 23.1751 24.8212 24.3212C23.6752 25.4672 22.1208 26.1111 20.5 26.1111Z" fill="#4DA7D6"/>
</svg>
