<svg width="41" height="40" viewBox="0 0 41 40" fill="none" xmlns="http://www.w3.org/2000/svg">
<g clip-path="url(#clip0)">
<g clip-path="url(#clip1)">
<path d="M20.5 3.33331C22.2104 3.33331 23.8554 3.9907 25.0947 5.16952C26.334 6.34833 27.0728 7.95838 27.1583 9.66665L27.1667 9.99998L27.1683 21.2133L27.26 21.31C28.595 22.7645 29.423 24.6122 29.62 26.5766L29.655 27.0366L29.6667 27.5C29.6665 28.9713 29.3122 30.421 28.6337 31.7265C27.9552 33.032 26.9723 34.155 25.7683 35.0006C24.5642 35.8462 23.1743 36.3895 21.716 36.5847C20.2577 36.7799 18.7738 36.6212 17.3898 36.122C16.0057 35.6227 14.7622 34.7977 13.7643 33.7166C12.7663 32.6354 12.0432 31.3299 11.6562 29.9104C11.2692 28.4909 11.2295 26.9991 11.5405 25.5611C11.8516 24.123 12.5043 22.781 13.4433 21.6483L13.7417 21.3066L13.8317 21.2116L13.8333 9.99998C13.8332 8.34805 14.4464 6.7549 15.554 5.52934C16.6616 4.30377 18.1848 3.53308 19.8283 3.36665L20.1667 3.34165L20.5 3.33331ZM20.5 6.66665C19.659 6.66638 18.8491 6.98399 18.2324 7.55581C17.6158 8.12763 17.2381 8.91139 17.175 9.74998L17.1667 9.99998V22.655L16.6117 23.1516C15.7423 23.9292 15.1259 24.9495 14.8422 26.0808C14.5585 27.2122 14.6204 28.4026 15.02 29.4983C15.4197 30.5941 16.1386 31.5449 17.084 32.228C18.0294 32.9111 19.1579 33.2951 20.3237 33.3304C21.4895 33.3657 22.6392 33.0508 23.6242 32.4261C24.6092 31.8015 25.3844 30.896 25.8496 29.8264C26.3148 28.7568 26.4487 27.5723 26.234 26.4259C26.0192 25.2794 25.4658 24.2237 24.645 23.395L24.39 23.1533L23.835 22.6566L23.8333 9.99998C23.8333 9.11592 23.4822 8.26808 22.857 7.64296C22.2319 7.01784 21.3841 6.66665 20.5 6.66665ZM20.5 13.3333C20.942 13.3333 21.366 13.5089 21.6785 13.8215C21.9911 14.134 22.1667 14.558 22.1667 15V23.68C23.044 24.0629 23.7628 24.7362 24.202 25.5867C24.6413 26.4372 24.7744 27.413 24.5788 28.3501C24.3832 29.2871 23.8709 30.1283 23.1281 30.7321C22.3853 31.3359 21.4573 31.6655 20.5 31.6655C19.5428 31.6655 18.6147 31.3359 17.8719 30.7321C17.1291 30.1283 16.6168 29.2871 16.4212 28.3501C16.2257 27.413 16.3587 26.4372 16.798 25.5867C17.2373 24.7362 17.956 24.0629 18.8333 23.68V15C18.8333 14.558 19.0089 14.134 19.3215 13.8215C19.6341 13.5089 20.058 13.3333 20.5 13.3333Z" fill="#4DA7D6"/>
</g>
</g>
<defs>
<clipPath id="clip0">
<rect width="40" height="40" fill="white" transform="translate(0.5)"/>
</clipPath>
<clipPath id="clip1">
<rect width="40" height="40" fill="white" transform="translate(0.5)"/>
</clipPath>
</defs>
</svg>
